<svg width="197" height="195" viewBox="0 0 197 195" fill="none" xmlns="http://www.w3.org/2000/svg">
<path d="M75.6484 125.206C75.738 56.3945 36.5338 53.4196 7.4519 56.9457C3.8253 57.3855 0.567349 54.6302 0.528413 50.9772L0.0639662 7.40318C0.0286482 4.08967 2.68616 1.37489 5.99968 1.33957L45.3202 0.920465C48.8867 0.88245 51.6847 3.96046 51.4905 7.52183C47.812 74.9863 93.2818 80.5638 126.158 79.2356C129.596 79.0968 132.509 81.7901 132.545 85.2306L132.968 124.896C133.003 128.21 130.346 130.924 127.032 130.96L81.8082 131.442C78.3899 131.478 75.6439 128.625 75.6484 125.206Z" fill="#1DDC74"/>
<path d="M47.9403 74.3741C37.8927 66.8715 27.25 62.6349 19.8877 60.5805C16.3965 59.6063 13.2106 62.3516 13.2106 65.9762L13.2106 154.258C13.2106 155.839 13.3516 157.42 13.7223 158.957C19.1628 181.502 35.4505 190.469 47.5834 193.947C49.3198 194.445 51.1093 194.641 52.9157 194.653C78.559 194.817 138.715 195.02 158 194.635C176.168 194.271 188.183 175.176 194.48 160.812C195.68 158.074 196.211 155.101 196.211 152.112L196.211 53.635C193.014 29.8356 175.219 21.3615 162.521 16.0273C159.536 14.7736 156.331 14.135 153.094 14.135L62.5 14.135C59.6986 14.135 57.1869 16.0814 57.1267 18.8821C56.8081 33.6946 70.2458 46.7944 78.7615 52.6729C79.7006 53.3211 80.8167 53.635 81.9578 53.635L146 53.635C152.627 53.635 158 59.0076 158 65.635L158 144.635C158 151.262 152.627 156.635 146 156.635H104.105H62.2106C55.5832 156.635 50.2106 151.262 50.2106 144.635L50.2106 79.0062C50.2106 77.1906 49.395 75.4604 47.9403 74.3741Z" fill="#3566FF"/>
</svg>
